<?xml version="1.0" encoding="utf-8"?>
<!-- Generator: Adobe Illustrator 24.2.0, SVG Export Plug-In . SVG Version: 6.00 Build 0)  -->
<svg version="1.1" id="Capa_1" xmlns="http://www.w3.org/2000/svg" xmlns:xlink="http://www.w3.org/1999/xlink" x="0px" y="0px"
	 viewBox="0 0 352 238" style="enable-background:new 0 0 352 238;" xml:space="preserve">
<path class="st0" d="M232.2,216v0.4c0,1-0.2,1.9-0.6,2.7c-0.4,0.9-0.9,1.6-1.5,2.2c-0.6,0.6-1.4,1.1-2.2,1.5
	c-0.9,0.4-1.8,0.6-2.7,0.6s-1.9-0.2-2.7-0.6c-0.9-0.4-1.6-0.9-2.2-1.5c-0.6-0.6-1.1-1.4-1.5-2.2c-0.4-0.9-0.6-1.8-0.6-2.7v-22.4
	c0-1,0.2-1.9,0.6-2.7c0.4-0.9,0.9-1.6,1.5-2.2c0.6-0.6,1.4-1.1,2.2-1.5c0.9-0.4,1.8-0.6,2.7-0.6s1.9,0.2,2.7,0.6
	c0.9,0.4,1.6,0.9,2.2,1.5c0.6,0.6,1.1,1.4,1.5,2.2c0.4,0.9,0.6,1.8,0.6,2.7v0.4h-2.8v-0.4c0-0.6-0.1-1.1-0.3-1.6
	c-0.2-0.5-0.5-0.9-0.9-1.3c-0.4-0.4-0.8-0.7-1.3-0.9c-0.5-0.2-1-0.3-1.6-0.3c-0.6,0-1.1,0.1-1.6,0.3c-0.5,0.2-0.9,0.5-1.3,0.9
	c-0.4,0.4-0.7,0.8-0.9,1.3c-0.2,0.5-0.3,1-0.3,1.6l0,10.9l0,11.6c0,0.6,0.1,1.1,0.3,1.6c0.2,0.5,0.5,0.9,0.9,1.3
	c0.4,0.4,0.8,0.7,1.3,0.9c0.5,0.2,1,0.3,1.6,0.3c0.6,0,1.1-0.1,1.6-0.3c0.5-0.2,0.9-0.5,1.3-0.9c0.4-0.4,0.7-0.8,0.9-1.3
	c0.2-0.5,0.3-1,0.3-1.6V216H232.2z M249,216.4c0,1-0.2,1.9-0.6,2.7c-0.4,0.9-0.9,1.6-1.5,2.2c-0.6,0.6-1.4,1.1-2.2,1.5
	c-0.9,0.4-1.8,0.6-2.7,0.6c-1,0-1.9-0.2-2.7-0.6c-0.9-0.4-1.6-0.9-2.2-1.5c-0.6-0.6-1.1-1.4-1.5-2.2c-0.4-0.9-0.6-1.8-0.6-2.7v-11.2
	c0-1,0.2-1.9,0.6-2.7c0.4-0.9,0.9-1.6,1.5-2.2c0.6-0.6,1.4-1.1,2.2-1.5c0.9-0.4,1.8-0.6,2.7-0.6c1,0,1.9,0.2,2.7,0.6
	c0.9,0.4,1.6,0.9,2.2,1.5c0.6,0.6,1.1,1.4,1.5,2.2c0.4,0.9,0.6,1.8,0.6,2.7V216.4z M237.8,216.4c0,0.6,0.1,1.1,0.3,1.6
	c0.2,0.5,0.5,0.9,0.9,1.3c0.4,0.4,0.8,0.7,1.3,0.9c0.5,0.2,1,0.3,1.6,0.3c0.6,0,1.1-0.1,1.6-0.3c0.5-0.2,0.9-0.5,1.3-0.9
	c0.4-0.4,0.7-0.8,0.9-1.3c0.2-0.5,0.3-1,0.3-1.6v-11.2c0-0.6-0.1-1.1-0.3-1.6c-0.2-0.5-0.5-0.9-0.9-1.3c-0.4-0.4-0.8-0.7-1.3-0.9
	c-0.5-0.2-1-0.3-1.6-0.3c-0.6,0-1.1,0.1-1.6,0.3c-0.5,0.2-0.9,0.5-1.3,0.9c-0.4,0.4-0.7,0.8-0.9,1.3c-0.2,0.5-0.3,1-0.3,1.6V216.4z
	 M263.1,223.4v-18.2c0-0.6-0.1-1.1-0.3-1.6c-0.2-0.5-0.5-0.9-0.9-1.3c-0.4-0.4-0.8-0.7-1.3-0.9c-0.5-0.2-1-0.3-1.6-0.3
	c-0.6,0-1.1,0.1-1.6,0.3c-0.5,0.2-0.9,0.5-1.3,0.9c-0.4,0.4-0.7,0.8-0.9,1.3c-0.2,0.5-0.3,1-0.3,1.6l0,18.2h-2.8v-18.2
	c0-1,0.2-1.9,0.6-2.7c0.4-0.9,0.9-1.6,1.5-2.2c0.6-0.6,1.4-1.1,2.2-1.5c0.9-0.4,1.8-0.6,2.7-0.6s1.9,0.2,2.7,0.6
	c0.9,0.4,1.6,0.9,2.2,1.5c0.6,0.6,1.1,1.4,1.5,2.2c0.4,0.9,0.6,1.8,0.6,2.7v18.2H263.1z M268.7,205.2c0-1,0.2-1.9,0.6-2.7
	c0.4-0.9,0.9-1.6,1.5-2.2c0.6-0.6,1.4-1.1,2.2-1.5c0.9-0.4,1.8-0.6,2.7-0.6c1,0,1.9,0.2,2.7,0.6c0.9,0.4,1.6,0.9,2.2,1.5
	c0.6,0.6,1.1,1.4,1.5,2.2c0.4,0.9,0.6,1.8,0.6,2.7v0.4h-2.8v-0.4c0-0.6-0.1-1.1-0.3-1.6c-0.2-0.5-0.5-0.9-0.9-1.3
	c-0.4-0.4-0.8-0.7-1.3-0.9c-0.5-0.2-1-0.3-1.6-0.3c-0.6,0-1.1,0.1-1.6,0.3s-0.9,0.5-1.3,0.9c-0.4,0.4-0.7,0.8-0.9,1.3
	c-0.2,0.5-0.3,1-0.3,1.6v11.2c0,0.6,0.1,1.1,0.3,1.6c0.2,0.5,0.5,0.9,0.9,1.3c0.4,0.4,0.8,0.7,1.3,0.9c0.5,0.2,1,0.3,1.6,0.3h4.2
	v2.8h-4.2c-1,0-1.9-0.2-2.7-0.6c-0.9-0.4-1.6-0.9-2.2-1.5c-0.6-0.6-1.1-1.4-1.5-2.2c-0.4-0.9-0.6-1.8-0.6-2.7V205.2z M285.5,205.2
	c0-1,0.2-1.9,0.6-2.7c0.4-0.9,0.9-1.6,1.5-2.2c0.6-0.6,1.4-1.1,2.2-1.5c0.9-0.4,1.8-0.6,2.7-0.6s1.9,0.2,2.7,0.6
	c0.9,0.4,1.6,0.9,2.2,1.5c0.6,0.6,1.1,1.4,1.5,2.2c0.4,0.9,0.6,1.8,0.6,2.7v2.8c0,1-0.2,1.9-0.6,2.7c-0.4,0.9-0.9,1.6-1.5,2.2
	c-0.6,0.6-1.4,1.1-2.2,1.5c-0.9,0.4-1.8,0.6-2.7,0.6h-4.2v1.3v0.1c0,0.6,0.1,1.1,0.3,1.6c0.2,0.5,0.5,0.9,0.9,1.3
	c0.4,0.4,0.8,0.7,1.3,0.9c0.5,0.2,1,0.3,1.6,0.3h4.2v2.8h-4.2c-1,0-1.9-0.2-2.7-0.6c-0.9-0.4-1.6-0.9-2.2-1.5
	c-0.6-0.6-1.1-1.4-1.5-2.2c-0.4-0.9-0.6-1.8-0.6-2.7V205.2z M296.7,205.2c0-0.6-0.1-1.1-0.3-1.6c-0.2-0.5-0.5-0.9-0.9-1.3
	c-0.4-0.4-0.8-0.7-1.3-0.9c-0.5-0.2-1-0.3-1.6-0.3c-0.6,0-1.1,0.1-1.6,0.3c-0.5,0.2-0.9,0.5-1.3,0.9c-0.4,0.4-0.7,0.8-0.9,1.3
	c-0.2,0.5-0.3,1-0.3,1.6v7h4.2c0.6,0,1.1-0.1,1.6-0.3c0.5-0.2,0.9-0.5,1.3-0.9c0.4-0.4,0.7-0.8,0.9-1.3c0.2-0.5,0.3-1,0.3-1.6V205.2
	z M309.3,198.1v25.2c0,1-0.2,1.9-0.6,2.7c-0.4,0.9-0.9,1.6-1.5,2.2c-0.6,0.6-1.4,1.1-2.2,1.5c-0.9,0.4-1.8,0.6-2.7,0.6v-2.8
	c0.6,0,1.1-0.1,1.6-0.3c0.5-0.2,0.9-0.5,1.3-0.9c0.4-0.4,0.7-0.8,0.9-1.3c0.2-0.5,0.3-1,0.3-1.6v-25.2H309.3z M306.5,189.7h2.8v2.8
	h-2.8V189.7z M319.2,223.4c-1,0-1.9-0.2-2.7-0.6c-0.9-0.4-1.6-0.9-2.2-1.5c-0.6-0.6-1.1-1.4-1.5-2.2c-0.4-0.9-0.6-1.8-0.6-2.7v-2.8
	c0-1,0.2-1.9,0.6-2.7c0.4-0.9,0.9-1.6,1.5-2.2c0.6-0.6,1.4-1.1,2.2-1.5c0.9-0.4,1.8-0.6,2.7-0.6h4.2v-1.4c0-0.6-0.1-1.1-0.3-1.6
	c-0.2-0.5-0.5-0.9-0.9-1.3c-0.4-0.4-0.8-0.7-1.3-0.9c-0.5-0.2-1-0.3-1.6-0.3h-4.2v-2.8h4.2c1,0,1.9,0.2,2.7,0.6
	c0.9,0.4,1.6,0.9,2.2,1.5c0.6,0.6,1.1,1.4,1.5,2.2c0.4,0.9,0.6,1.8,0.6,2.7v11.2c0,1-0.2,1.9-0.6,2.7c-0.4,0.9-0.9,1.6-1.5,2.2
	c-0.6,0.6-1.4,1.1-2.2,1.5C321,223.2,320.1,223.4,319.2,223.4z M319.2,220.6c0.6,0,1.1-0.1,1.6-0.3c0.5-0.2,0.9-0.5,1.3-0.9
	c0.4-0.4,0.7-0.8,0.9-1.3c0.2-0.5,0.3-1,0.3-1.6v-7h-4.2c-0.6,0-1.1,0.1-1.6,0.3c-0.5,0.2-0.9,0.5-1.3,0.9c-0.4,0.4-0.7,0.8-0.9,1.3
	c-0.2,0.5-0.3,1-0.3,1.6v2.8c0,0.6,0.1,1.1,0.3,1.6c0.2,0.5,0.5,0.9,0.9,1.3c0.4,0.4,0.8,0.7,1.3,0.9
	C318,220.5,318.6,220.6,319.2,220.6z M331.8,189.7v26.6c0,0.6,0.1,1.1,0.3,1.6c0.2,0.5,0.5,0.9,0.9,1.3c0.4,0.4,0.8,0.7,1.3,0.9
	c0.5,0.2,1,0.3,1.6,0.3v2.8c-1,0-1.9-0.2-2.7-0.6c-0.9-0.4-1.6-0.9-2.2-1.5c-0.6-0.6-1.1-1.4-1.5-2.2c-0.4-0.9-0.6-1.8-0.6-2.7
	v-26.6H331.8z M36.2,133.7c-3.6-1.6-7-3.4-10.2-5.4c-3.2-2-5.9-4.3-8.2-6.9c-2.3-2.7-3.8-6-4.3-10.1h-0.1c-0.1-0.6-0.1-1.1-0.1-1.7
	c0-0.6,0-1.1,0-1.7c0-3.8,0.7-7.4,2.2-10.8c1.5-3.4,3.5-6.3,6-8.9c2.5-2.5,5.5-4.5,8.9-6c3.4-1.5,7-2.2,10.8-2.2
	c3.8,0,7.4,0.7,10.8,2.2c3.4,1.5,6.3,3.5,8.9,6c2.5,2.5,4.5,5.5,6,8.9c1.5,3.4,2.2,7,2.2,10.8v1.4H57.8V108c0-2.3-0.4-4.5-1.3-6.5
	c-0.9-2-2.1-3.8-3.6-5.3c-1.5-1.5-3.3-2.7-5.3-3.6c-2-0.9-4.2-1.3-6.5-1.3c-2.3,0-4.5,0.4-6.5,1.3c-2,0.9-3.8,2.1-5.3,3.6
	c-1.5,1.5-2.7,3.3-3.6,5.3c-0.9,2-1.3,4.2-1.3,6.4c0,3,1.1,5.5,3.3,7.5c2.2,2,4.9,3.9,8.2,5.6c3.3,1.7,6.9,3.4,10.7,5.2
	c3.8,1.7,7.4,3.8,10.7,6.1c3.3,2.4,6.1,5.3,8.3,8.7c2.2,3.4,3.4,7.7,3.5,12.7v0.4v0.1c0,3.8-0.7,7.4-2.2,10.8
	c-1.5,3.4-3.5,6.3-6.1,8.9c-2.6,2.5-5.5,4.5-8.9,5.9c-3.3,1.4-6.9,2.2-10.7,2.2c-3.8,0-7.4-0.7-10.8-2.2c-3.4-1.5-6.3-3.5-8.9-6
	c-2.5-2.5-4.5-5.5-6-8.9c-1.5-3.4-2.2-7-2.2-10.8v-0.7l11.2-0.3v1c0,2.3,0.4,4.5,1.3,6.5c0.9,2,2.1,3.8,3.6,5.3
	c1.5,1.5,3.3,2.7,5.3,3.6c2,0.9,4.2,1.3,6.5,1.3c2.2,0,4.3-0.4,6.3-1.2c2-0.8,3.7-1.9,5.2-3.3c1.5-1.4,2.7-3,3.6-5
	c0.9-1.9,1.4-3.9,1.6-6.1c-0.3-3.8-1.5-7-3.6-9.6 M125.3,101.3v58.2c0,3.1-0.7,6-2,8.7c-1.3,2.7-3.1,5.1-5.4,7.1
	c-2.2,2-4.9,3.6-7.9,4.8c-3,1.2-6.3,1.8-9.7,1.8c-3.4,0-6.6-0.6-9.7-1.8c-3-1.2-5.7-2.8-7.9-4.8c-2.3-2-4-4.4-5.4-7.1
	c-1.3-2.7-2-5.6-2-8.7v-58.2h9.9l0.1,58.2c0,1.9,0.4,3.6,1.2,5.2c0.8,1.6,1.9,3,3.3,4.3c1.4,1.2,3,2.2,4.7,2.9
	c1.8,0.7,3.7,1.1,5.8,1.1c2.1,0,4-0.4,5.8-1.1c1.8-0.7,3.4-1.7,4.7-2.9c1.4-1.2,2.5-2.6,3.3-4.3c0.8-1.6,1.2-3.3,1.2-5.2v-58.2
	H125.3z M158.2,109.2c-2.1,0-4,0.4-5.8,1.1c-1.8,0.7-3.4,1.7-4.7,2.9c-1.4,1.2-2.5,2.6-3.3,4.3c-0.8,1.6-1.2,3.4-1.2,5.2
	c0,2.4,1,4.4,2.9,6c2,1.6,4.4,3.1,7.4,4.5c3,1.4,6.1,2.8,9.6,4.1c3.4,1.4,6.6,3,9.6,4.9c3,1.9,5.4,4.2,7.4,7c2,2.8,3,6.2,3.1,10.2
	v0.3v0.1c0,3.1-0.7,6-2,8.7c-1.3,2.7-3.1,5.1-5.4,7.1c-2.3,2-4.9,3.6-7.9,4.8c-3,1.2-6.2,1.7-9.6,1.7c-3.4,0-6.6-0.6-9.7-1.8
	c-3-1.2-5.7-2.8-7.9-4.8c-2.3-2-4-4.4-5.4-7.1c-1.3-2.7-2-5.6-2-8.7V159l10-0.2v0.8c0,1.9,0.4,3.6,1.2,5.2c0.8,1.6,1.9,3,3.3,4.3
	c1.4,1.2,3,2.2,4.7,2.9c1.8,0.7,3.7,1.1,5.8,1.1c2,0,3.9-0.3,5.6-1c1.7-0.6,3.3-1.5,4.6-2.6c1.3-1.1,2.4-2.4,3.2-4
	c0.8-1.5,1.3-3.2,1.4-4.9c-0.3-3.1-1.3-5.6-3.3-7.7c-1.9-2.1-4.3-3.8-7-5.4c-2.8-1.5-5.7-2.9-9-4.3c-3.3-1.3-6.3-2.7-9.1-4.3
	c-2.8-1.6-5.3-3.4-7.4-5.5c-2.1-2.1-3.4-4.8-3.9-8.1h-0.1c-0.1-0.4-0.1-0.9-0.1-1.3s0-0.9,0-1.3c0-3.1,0.7-6,2-8.7
	c1.3-2.7,3.1-5.1,5.4-7.1c2.2-2,4.9-3.6,7.9-4.8c3-1.2,6.3-1.8,9.7-1.8c3.4,0,6.6,0.6,9.7,1.8c3,1.2,5.7,2.8,7.9,4.8
	c2.3,2,4,4.4,5.4,7.1c1.3,2.7,2,5.6,2,8.7v1.1h-10v-1.1c0-1.9-0.4-3.6-1.2-5.2c-0.8-1.6-1.9-3-3.3-4.3c-1.4-1.2-3-2.2-4.7-2.9
	C162.2,109.5,160.3,109.2,158.2,109.2z M233.2,181.9v-58.2c0-1.9-0.4-3.6-1.2-5.2c-0.8-1.6-1.9-3-3.2-4.3c-1.4-1.2-3-2.2-4.7-2.9
	c-1.8-0.7-3.7-1.1-5.8-1.1c-2.1,0-4,0.4-5.8,1.1c-1.8,0.7-3.4,1.7-4.7,2.9c-1.4,1.2-2.5,2.7-3.2,4.3c-0.8,1.6-1.2,3.3-1.2,5.2
	l-0.1,58.2h-9.9v-58.2c0-3.1,0.7-6,2-8.7c1.3-2.7,3.1-5.1,5.4-7.1c2.2-2,4.9-3.6,7.9-4.8c3-1.2,6.3-1.8,9.7-1.8
	c3.4,0,6.6,0.6,9.7,1.8c3,1.2,5.7,2.8,7.9,4.8c2.2,2,4,4.4,5.4,7.1c1.3,2.7,2,5.6,2,8.7v58.2H233.2z M278.2,181.9
	c-3.4,0-6.6-0.6-9.7-1.8c-3-1.2-5.7-2.8-7.9-4.8c-2.2-2-4-4.4-5.4-7.1c-1.3-2.7-2-5.6-2-8.7v-9c0-3.1,0.7-6,2-8.7
	c1.3-2.7,3.1-5.1,5.4-7.1c2.2-2,4.9-3.6,7.9-4.8c3-1.2,6.3-1.8,9.7-1.8h15v-4.5c0-1.9-0.4-3.6-1.2-5.2c-0.8-1.6-1.9-3-3.2-4.3
	c-1.4-1.2-3-2.2-4.7-2.9c-1.8-0.7-3.7-1.1-5.8-1.1h-15v-9h15c3.4,0,6.6,0.6,9.7,1.8c3,1.2,5.7,2.8,7.9,4.8c2.2,2,4,4.4,5.4,7.1
	c1.3,2.7,2,5.6,2,8.7v35.8c0,3.1-0.7,6-2,8.7c-1.3,2.7-3.1,5.1-5.4,7.1c-2.3,2-4.9,3.6-7.9,4.8C284.8,181.3,281.6,181.9,278.2,181.9
	z M278.2,173c2.1,0,4-0.4,5.8-1.1c1.8-0.7,3.4-1.7,4.7-2.9c1.4-1.2,2.5-2.6,3.2-4.3c0.8-1.6,1.2-3.3,1.2-5.2v-22.4h-15
	c-2.1,0-4,0.4-5.8,1.1c-1.8,0.7-3.4,1.7-4.7,2.9c-1.4,1.2-2.5,2.7-3.2,4.3c-0.8,1.6-1.2,3.3-1.2,5.2v9c0,1.9,0.4,3.6,1.2,5.2
	c0.8,1.6,1.9,3,3.2,4.3c1.4,1.2,3,2.2,4.7,2.9C274.1,172.6,276.1,173,278.2,173z M313.2,181.9v-58.2c0-3.1,0.7-6,2-8.7
	c1.3-2.7,3.1-5.1,5.4-7.1c2.2-2,4.9-3.6,7.9-4.8c3-1.2,6.3-1.8,9.7-1.8v9c-2.1,0-4,0.4-5.8,1.1c-1.8,0.7-3.4,1.7-4.7,2.9
	c-1.4,1.2-2.5,2.7-3.2,4.3c-0.8,1.6-1.2,3.3-1.2,5.2v58.2H313.2z M231.5,93.7c-2.4,0.5-4.7,0.7-6.8,0.4c-2.1-0.3-4.1-0.8-6-1.6
	c-1.9-0.7-3.7-1.3-5.4-1.7c-1.7-0.4-3.4-0.5-4.9-0.2c-1.6,0.2-3.1,1.3-4.6,3l-5.6-9.1c2.6-2.2,5.1-3.5,7.4-3.9
	c2.4-0.5,4.6-0.5,6.7-0.1c2.1,0.4,4.1,1,6.1,1.8c1.9,0.8,3.7,1.4,5.5,1.8c1.7,0.4,3.4,0.4,4.9,0c1.5-0.4,3-1.7,4.4-3.9l5.9,9.4
	C236.5,91.7,233.9,93.1,231.5,93.7z M210.2,207.6h-197v4.9h197V207.6z M126,66.2c-0.9-0.4-1.7-0.9-2.4-1.7c-0.7-0.7-1.3-1.5-1.7-2.4
	c-0.4-0.9-0.6-1.9-0.6-3V26.1h-5.1v33.1c0,1.7,0.3,3.4,1,4.9c0.7,1.5,1.6,2.9,2.7,4c1.1,1.1,2.5,2.1,4,2.7c1.6,0.7,3.2,1,5,1v-5.1
	C127.9,66.8,126.9,66.6,126,66.2z M116.2,10.9v5.1h5.1v-5.1H116.2z M109.5,31.2v-5.1h-7.6V10.9h-5.1v48.3c0,1.7,0.3,3.4,1,4.9
	c0.7,1.5,1.6,2.9,2.7,4c1.1,1.1,2.5,2.1,4,2.7c1.6,0.7,3.2,1,4.9,1v-5.1c-1,0-2-0.2-3-0.6c-0.9-0.4-1.7-0.9-2.4-1.7
	c-0.7-0.7-1.3-1.5-1.7-2.4c-0.4-0.9-0.6-1.9-0.6-3v-28H109.5z M89.1,33.9c-0.7-1.6-1.6-2.9-2.7-4.1c-1.1-1.1-2.5-2-4-2.7
	c-1.6-0.7-3.2-1-4.9-1c-1.7,0-3.4,0.3-4.9,1c-1.5,0.7-2.9,1.6-4,2.7c-1.1,1.1-2.1,2.5-2.7,4.1c-0.7,1.5-1,3.2-1,4.9v33.1h5l0.1-33.1
	c0-1.1,0.2-2,0.6-3c0.4-0.9,0.9-1.7,1.7-2.4c0.7-0.7,1.5-1.3,2.4-1.7c0.9-0.4,1.9-0.6,3-0.6c1.1,0,2.1,0.2,3,0.6
	c0.9,0.4,1.7,1,2.4,1.7c0.7,0.7,1.3,1.5,1.7,2.4c0.4,0.9,0.6,1.9,0.6,3v33.1h5.1V38.8C90.2,37.1,89.8,35.5,89.1,33.9z M55.1,66.2
	c-0.9-0.4-1.7-0.9-2.4-1.7c-0.7-0.7-1.3-1.5-1.6-2.4c-0.4-0.9-0.6-1.9-0.6-3V26.1h-5.1v33.1c0,1.7,0.4,3.4,1,4.9
	c0.7,1.5,1.6,2.9,2.8,4c1.1,1.1,2.5,2.1,4,2.7c1.5,0.7,3.2,1,4.9,1v-5.1C57,66.8,56,66.6,55.1,66.2z M45.3,10.9v5.1h5.1v-5.1H45.3z
	 M38.6,22.8v-0.6c0-1.6-0.4-3.2-1-4.6c-0.7-1.4-1.6-2.7-2.7-3.8c-1.1-1.1-2.5-1.9-4.1-2.6c-1.5-0.6-3.2-0.9-4.9-0.9
	c-1.7,0-3.4,0.3-4.9,0.9c-1.6,0.6-2.9,1.5-4,2.6c-1.1,1-2.1,2.3-2.8,3.8c-0.7,1.4-1,3-1,4.6v37.8c0,1.6,0.4,3.2,1,4.6
	c0.7,1.5,1.6,2.7,2.8,3.8c1.1,1.1,2.5,1.9,4,2.6c1.5,0.6,3.2,0.9,4.9,0.9c1.7,0,3.4-0.3,4.9-0.9c1.6-0.6,2.9-1.5,4.1-2.6
	c1.1-1,2-2.3,2.7-3.8c0.7-1.4,1-3,1-4.6v-0.6h-5.1v0.6c0,1-0.2,1.9-0.6,2.8c-0.4,0.9-1,1.6-1.7,2.2c-0.7,0.7-1.5,1.2-2.4,1.6
	c-0.9,0.4-1.9,0.6-3,0.6c-1.1,0-2-0.2-3-0.6c-0.9-0.4-1.7-0.9-2.4-1.6c-0.7-0.6-1.3-1.4-1.6-2.2c-0.4-0.8-0.6-1.8-0.6-2.8l-0.1-19.5
	l0.1-18.3c0-1,0.2-1.9,0.6-2.8c0.4-0.8,0.9-1.6,1.6-2.2c0.7-0.7,1.5-1.2,2.4-1.6c0.9-0.4,1.9-0.6,3-0.6c1.1,0,2,0.2,3,0.6
	c0.9,0.4,1.7,0.9,2.4,1.6c0.7,0.6,1.3,1.4,1.7,2.2c0.4,0.8,0.6,1.8,0.6,2.8v0.6H38.6z M157.8,41.4v-2.5c0-1.7-0.4-3.4-1-4.9
	c-0.7-1.6-1.6-2.9-2.8-4.1c-1.1-1.1-2.5-2-4-2.7c-1.5-0.7-3.2-1-4.9-1h-7.6v5.1h7.6c1.1,0,2,0.2,3,0.6c0.9,0.4,1.7,1,2.4,1.7
	c0.7,0.7,1.3,1.5,1.6,2.4c0.4,0.9,0.6,1.9,0.6,3v2.6h-7.6c-1.7,0-3.4,0.3-4.9,1c-1.6,0.7-2.9,1.6-4.1,2.8c-1.1,1.1-2,2.5-2.7,4
	c-0.7,1.6-1,3.2-1,4.9v5.1c0,1.7,0.4,3.4,1,4.9c0.7,1.5,1.6,2.9,2.7,4c1.1,1.1,2.5,2.1,4.1,2.7c1.5,0.7,3.2,1,4.9,1s3.4-0.3,4.9-1
	c1.6-0.7,2.9-1.6,4-2.7c1.1-1.1,2.1-2.5,2.8-4c0.7-1.6,1-3.2,1-4.9V46.5h181.4v-5.1H157.8z M152.7,59.2c0,1-0.2,2-0.6,3
	c-0.4,0.9-0.9,1.7-1.6,2.4c-0.7,0.7-1.5,1.3-2.4,1.7c-0.9,0.4-1.9,0.6-3,0.6c-1.1,0-2-0.2-3-0.6c-0.9-0.4-1.7-0.9-2.4-1.7
	c-0.7-0.7-1.3-1.5-1.6-2.4c-0.4-0.9-0.6-1.9-0.6-3v-5.1c0-1,0.2-2,0.6-3c0.4-0.9,0.9-1.7,1.6-2.4c0.7-0.7,1.5-1.3,2.4-1.6
	c0.9-0.4,1.9-0.6,3-0.6h7.6V59.2z"/>
</svg>
